# xmcd
#
# Track frame offsets:
# 150
# 13166
# 28411
# 40278
# 53644
# 66128
# 78738
# 95259
# 115526
# 127566
# 144218
# 160344
# 176079
# 189415
#
# Disc length: 2824 seconds
#
#
# Revision: 0
# Processed by: cddbd v1.5.1PL0 Copyright (c) Steve Scherf et al.
# Submitted via: FreeRIP 2.941 
#
DISCID=b10b060e
DTITLE=DI PAULLO and PAULINO - MOMENTOS
DYEAR=1900
DGENRE=SERTANEJO
TTITLE0=SAUDADE BOA DE BRIGA
TTITLE1=TÔ POR AI
TTITLE2=CAI SERENO
TTITLE3=CASO DO PASSADO
TTITLE4=BARCO DE PAPEL
TTITLE5=EU ACHEI BÃO
TTITLE6=EM DUAS PALAVRAS
TTITLE7=SÓ FELICIDADE
TTITLE8=NÃO BRINQUE COM A PAIXÃO
TTITLE9=O QUE É QUE EU SOU SEM VOCÊ(NADA NADA NADA)
TTITLE10=FRUTO PROIBIDO
TTITLE11=O CORAÇÃO CHORA
TTITLE12=HOJE EU NÃO POSSO IR
TTITLE13=POUT-POURRI (O BEIJO DO ADEUS/SUBLIME RENUNCIA/O ULTIMO ADEUS)
EXTD=
EXTT0=
EXTT1=
EXTT2=
EXTT3=
EXTT4=
EXTT5=
EXTT6=
EXTT7=
EXTT8=
EXTT9=
EXTT10=
EXTT11=
EXTT12=
EXTT13=
PLAYORDER=
